<svg width="16" height="16" viewBox="0 0 16 16" fill="none" xmlns="http://www.w3.org/2000/svg">
<g clip-path="url(#clip0_7752_1496)">
<path fill-rule="evenodd" clip-rule="evenodd" d="M0.00012207 1.5C0.00012207 0.671573 0.671695 0 1.50012 0H7.9119C8.74033 0 9.4119 0.671573 9.4119 1.5V1.79412C9.4119 2.62255 8.74033 3.29412 7.9119 3.29412H1.50012C0.671695 3.29412 0.00012207 2.62255 0.00012207 1.79412V1.5ZM12.7058 1.50087C12.7058 0.672442 13.3773 0.000868066 14.2058 0.000868066H14.4999C15.3283 0.000868066 15.9999 0.672441 15.9999 1.50087V1.79499C15.9999 2.62342 15.3283 3.29499 14.4999 3.29499H14.2058C13.3773 3.29499 12.7058 2.62342 12.7058 1.79499V1.50087ZM10.9118 12.7059C10.0834 12.7059 9.41179 13.3775 9.41179 14.2059V14.5C9.41179 15.3284 10.0834 16 10.9118 16H14.5C15.3285 16 16 15.3284 16 14.5V14.2059C16 13.3774 15.3285 12.7059 14.5 12.7059H10.9118ZM0 14.2059C0 13.3775 0.671573 12.7059 1.5 12.7059H5.08824C5.91667 12.7059 6.58824 13.3774 6.58824 14.2059V14.5C6.58824 15.3284 5.91667 16 5.08824 16H1.5C0.671573 16 0 15.3284 0 14.5V14.2059ZM1.5 6.11813C0.671573 6.11813 0 6.7897 0 7.61813V7.91225C0 8.74068 0.671572 9.41225 1.5 9.41225H14.5C15.3284 9.41225 16 8.74067 16 7.91225V7.61813C16 6.7897 15.3284 6.11813 14.5 6.11813H1.5Z" fill="#009AFF"/>
</g>
<defs>
<clipPath id="clip0_7752_1496">
<rect width="16" height="16" fill="white"/>
</clipPath>
</defs>
</svg>
