<svg width="16" height="16" viewBox="0 0 16 16" fill="none" xmlns="http://www.w3.org/2000/svg">
<path d="M13.5655 3.01119C13.5611 3.00272 13.5537 2.99609 13.5447 2.99248C12.5074 2.52502 11.4126 2.19169 10.288 2.00082C10.2777 1.99895 10.2672 2.0003 10.2578 2.00466C10.2484 2.00903 10.2406 2.01619 10.2356 2.02514C10.0866 2.29086 9.95124 2.5638 9.83018 2.84292C8.61784 2.66218 7.38466 2.66218 6.17232 2.84292C6.05046 2.5631 5.91297 2.29009 5.76048 2.02514C5.75525 2.01639 5.74746 2.00939 5.73812 2.00505C5.72878 2.00071 5.71833 1.99924 5.70813 2.00082C4.58333 2.19129 3.48853 2.52464 2.4513 2.9925C2.44242 2.9962 2.43493 3.00251 2.42986 3.01057C0.355589 6.0529 -0.21263 9.02042 0.0661189 11.9512C0.0669031 11.9584 0.06915 11.9653 0.0727261 11.9717C0.0763022 11.978 0.0811344 11.9835 0.0869353 11.9879C1.29476 12.8663 2.64573 13.5367 4.08219 13.9707C4.0923 13.9736 4.10311 13.9735 4.11314 13.9703C4.12318 13.967 4.13197 13.9609 4.13832 13.9526C4.44684 13.5403 4.72022 13.1037 4.95566 12.6473C4.9589 12.641 4.96074 12.6342 4.96108 12.6271C4.96142 12.6201 4.96024 12.6131 4.95762 12.6066C4.955 12.6 4.951 12.5941 4.94588 12.5892C4.94076 12.5843 4.93465 12.5805 4.92793 12.5781C4.49684 12.4161 4.0795 12.2208 3.67982 11.9941C3.67256 11.9899 3.66646 11.984 3.66206 11.977C3.65767 11.9699 3.65511 11.9619 3.65461 11.9536C3.65411 11.9454 3.65569 11.9371 3.65921 11.9296C3.66273 11.9221 3.66808 11.9156 3.67478 11.9106C3.75865 11.8488 3.84257 11.7847 3.92265 11.7198C3.92976 11.7141 3.93837 11.7104 3.94751 11.7092C3.95664 11.708 3.96594 11.7093 3.97435 11.713C6.59284 12.8867 9.4277 12.8867 12.0152 11.713C12.0236 11.709 12.033 11.7075 12.0423 11.7086C12.0516 11.7097 12.0603 11.7134 12.0675 11.7192C12.1477 11.784 12.2315 11.8488 12.316 11.9106C12.3228 11.9155 12.3282 11.922 12.3318 11.9295C12.3353 11.937 12.337 11.9452 12.3365 11.9535C12.3361 11.9617 12.3336 11.9698 12.3293 11.9768C12.3249 11.9839 12.3189 11.9899 12.3116 11.9941C11.9129 12.2227 11.4951 12.4179 11.0629 12.5775C11.0562 12.58 11.0501 12.5839 11.045 12.5889C11.0399 12.5938 11.036 12.5998 11.0334 12.6064C11.0309 12.613 11.0297 12.62 11.0301 12.6271C11.0305 12.6341 11.0324 12.641 11.0357 12.6473C11.2751 13.1012 11.5481 13.5372 11.8524 13.9519C11.8586 13.9604 11.8673 13.9668 11.8774 13.9701C11.8875 13.9735 11.8984 13.9736 11.9086 13.9706C13.3476 13.5381 14.7009 12.8676 15.9103 11.9879C15.9161 11.9837 15.921 11.9783 15.9246 11.9721C15.9282 11.9659 15.9304 11.9589 15.9311 11.9518C16.2648 8.56353 15.3724 5.62033 13.5655 3.01119ZM5.34671 10.1667C4.55835 10.1667 3.90877 9.45612 3.90877 8.5835C3.90877 7.71087 4.54575 7.00028 5.34671 7.00028C6.15392 7.00028 6.79722 7.71704 6.78462 8.58344C6.78462 9.45612 6.14761 10.1667 5.34671 10.1667ZM10.6632 10.1667C9.87486 10.1667 9.22528 9.45612 9.22528 8.5835C9.22528 7.71087 9.86226 7.00028 10.6632 7.00028C11.4705 7.00028 12.1137 7.71704 12.1011 8.58344C12.1011 9.45612 11.4705 10.1667 10.6632 10.1667Z" fill="#009AFF"/>
</svg>
