<svg width="16" height="15" viewBox="0 0 16 15" fill="none" xmlns="http://www.w3.org/2000/svg">
<path d="M5.35161 11.9644C5.35161 12.0259 5.27742 12.075 5.18387 12.075C5.07742 12.0842 5.00323 12.0351 5.00323 11.9644C5.00323 11.903 5.07742 11.8538 5.17097 11.8538C5.26774 11.8446 5.35161 11.8937 5.35161 11.9644ZM4.34839 11.8261C4.32581 11.8876 4.39032 11.9583 4.4871 11.9767C4.57097 12.0074 4.66774 11.9767 4.6871 11.9152C4.70645 11.8538 4.64516 11.7831 4.54839 11.7555C4.46452 11.734 4.37097 11.7647 4.34839 11.8261ZM5.77419 11.7739C5.68064 11.7954 5.61613 11.8538 5.62581 11.9245C5.63548 11.9859 5.71935 12.0259 5.81613 12.0043C5.90968 11.9828 5.97419 11.9245 5.96452 11.863C5.95484 11.8046 5.86774 11.7647 5.77419 11.7739ZM7.89677 0C3.42258 0 0 3.23537 0 7.49695C0 10.9044 2.25161 13.8202 5.46774 14.8464C5.88064 14.9171 6.02581 14.6744 6.02581 14.4747C6.02581 14.2842 6.01613 13.2334 6.01613 12.5881C6.01613 12.5881 3.75806 13.049 3.28387 11.6725C3.28387 11.6725 2.91613 10.7784 2.3871 10.548C2.3871 10.548 1.64839 10.0656 2.43871 10.0748C2.43871 10.0748 3.24194 10.1363 3.68387 10.8675C4.39032 12.0535 5.57419 11.7125 6.03548 11.5097C6.10968 11.0181 6.31936 10.677 6.55161 10.4742C4.74839 10.2837 2.92903 10.0349 2.92903 7.07909C2.92903 6.23415 3.17419 5.81014 3.69032 5.26938C3.60645 5.06966 3.33226 4.24623 3.77419 3.18313C4.44839 2.98342 6 4.01271 6 4.01271C6.64516 3.84065 7.33871 3.75155 8.02581 3.75155C8.7129 3.75155 9.40645 3.84065 10.0516 4.01271C10.0516 4.01271 11.6032 2.98035 12.2774 3.18313C12.7194 4.2493 12.4452 5.06966 12.3613 5.26938C12.8774 5.81321 13.1935 6.23722 13.1935 7.07909C13.1935 10.0441 11.2935 10.2807 9.49032 10.4742C9.7871 10.717 10.0387 11.1778 10.0387 11.8999C10.0387 12.9353 10.029 14.2166 10.029 14.4685C10.029 14.6682 10.1774 14.911 10.5871 14.8403C13.8129 13.8202 16 10.9044 16 7.49695C16 3.23537 12.371 0 7.89677 0ZM3.13548 10.5971C3.09355 10.6279 3.10323 10.6985 3.15806 10.7569C3.20968 10.8061 3.28387 10.8276 3.32581 10.7876C3.36774 10.7569 3.35806 10.6862 3.30323 10.6279C3.25161 10.5787 3.17742 10.5572 3.13548 10.5971ZM2.7871 10.3483C2.76452 10.3882 2.79677 10.4374 2.86129 10.4681C2.9129 10.4988 2.97742 10.4896 3 10.4466C3.02258 10.4066 2.99032 10.3575 2.92581 10.3267C2.86129 10.3083 2.80968 10.3175 2.7871 10.3483ZM3.83226 11.4421C3.78065 11.482 3.8 11.5742 3.87419 11.6326C3.94839 11.7032 4.04194 11.7125 4.08387 11.6633C4.12581 11.6234 4.10645 11.5312 4.04194 11.4728C3.97097 11.4021 3.87419 11.3929 3.83226 11.4421ZM3.46452 10.9904C3.4129 11.0211 3.4129 11.101 3.46452 11.1717C3.51613 11.2424 3.60323 11.2731 3.64516 11.2424C3.69677 11.2024 3.69677 11.1225 3.64516 11.0519C3.6 10.9812 3.51613 10.9505 3.46452 10.9904Z" fill="#009AFF"/>
</svg>
