<svg width="16" height="16" viewBox="0 0 16 16" fill="none" xmlns="http://www.w3.org/2000/svg">
<path d="M4.34596 15H1.24686V4.98549H4.34596V15ZM2.79474 3.61942C1.80396 3.61942 1 2.79576 1 1.80134C1 0.80692 1.80396 0 2.79474 0C3.78552 0 4.58948 0.80692 4.58948 1.80134C4.58948 2.79576 3.78552 3.61942 2.79474 3.61942ZM15.945 15H12.8526V10.125C12.8526 8.96317 12.8293 7.47321 11.2414 7.47321C9.6301 7.47321 9.38323 8.73549 9.38323 10.0413V15H6.28748V4.98549H9.25981V6.35156H9.30317C9.71683 5.56473 10.7276 4.73437 12.2355 4.73437C15.3713 4.73437 15.9484 6.80692 15.9484 9.49888V15H15.945Z" fill="#009AFF"/>
</svg>
