<svg width="16" height="16" viewBox="0 0 16 16" fill="none" xmlns="http://www.w3.org/2000/svg">
<path d="M15.6657 3.78224C15.4817 3.08071 14.9395 2.52821 14.2511 2.34071C13.0033 2 8 2 8 2C8 2 2.99669 2 1.7489 2.34071C1.06052 2.52824 0.518349 3.08071 0.334336 3.78224C0 5.05381 0 7.70681 0 7.70681C0 7.70681 0 10.3598 0.334336 11.6314C0.518349 12.3329 1.06052 12.8624 1.7489 13.0499C2.99669 13.3906 8 13.3906 8 13.3906C8 13.3906 13.0033 13.3906 14.2511 13.0499C14.9395 12.8624 15.4817 12.3329 15.6657 11.6314C16 10.3598 16 7.70681 16 7.70681C16 7.70681 16 5.05381 15.6657 3.78224ZM6.36363 10.1155V5.29809L10.5454 7.70687L6.36363 10.1155Z" fill="#009AFF"/>
</svg>
